<?xml version="1.0" encoding="UTF-8" standalone="no"?>
<svg
   xmlns:dc="http://purl.org/dc/elements/1.1/"
   xmlns:cc="http://creativecommons.org/ns#"
   xmlns:rdf="http://www.w3.org/1999/02/22-rdf-syntax-ns#"
   xmlns:svg="http://www.w3.org/2000/svg"
   xmlns="http://www.w3.org/2000/svg"
   xmlns:sodipodi="http://sodipodi.sourceforge.net/DTD/sodipodi-0.dtd"
   xmlns:inkscape="http://www.inkscape.org/namespaces/inkscape"
   version="1.0"
   width="512.000000pt"
   height="512.000000pt"
   viewBox="0 0 512.000000 512.000000"
   preserveAspectRatio="xMidYMid meet"
   id="svg837"
   sodipodi:docname="shoppingcart.svg"
   inkscape:version="1.0.1 (c497b03c, 2020-09-10)">
  <metadata
     id="metadata843">
    <rdf:RDF>
      <cc:Work
         rdf:about="">
        <dc:format>image/svg+xml</dc:format>
        <dc:type
           rdf:resource="http://purl.org/dc/dcmitype/StillImage" />
      </cc:Work>
    </rdf:RDF>
  </metadata>
  <defs
     id="defs841" />
  <sodipodi:namedview
     pagecolor="#ffffff"
     bordercolor="#666666"
     borderopacity="1"
     objecttolerance="10"
     gridtolerance="10"
     guidetolerance="10"
     inkscape:pageopacity="0"
     inkscape:pageshadow="2"
     inkscape:window-width="2560"
     inkscape:window-height="1440"
     id="namedview839"
     showgrid="false"
     inkscape:zoom="3.6636786"
     inkscape:cx="223.51368"
     inkscape:cy="197.92326"
     inkscape:window-x="0"
     inkscape:window-y="0"
     inkscape:window-maximized="0"
     inkscape:current-layer="svg837" />
  <g
     transform="translate(0.000000,512.000000) scale(0.100000,-0.100000)"
     fill="#000000"
     stroke="none"
     id="g835"
     style="fill:#1a1d24;fill-opacity:1">
    <path
       d="M743 4349 c-65 -19 -98 -99 -68 -162 9 -20 26 -42 38 -50 12 -7 139 -59 281 -115 143 -56 260 -103 261 -104 3 -5 607 -1749 618 -1785 10 -31 8 -36 -16 -56 -21 -17 -47 -80 -122 -287 -52 -146 -95 -280 -95 -298 0 -69 44 -102 134 -102 l55 0 -34 -50 c-90 -134 -68 -328 52 -448 178 -178 476 -126 583 101 59 123 46 261 -36 374 l-16 23 395 0 396 0 -24 -36 c-99 -146 -82 -339 42 -461 180 -178 476 -128 583 99 54 114 49 236 -15 343 l-32 53 74 4 c70 3 77 6 104 36 55 62 27 143 -56 162 -23 6 -448 10 -997 10 -527 0 -958 3 -958 8 0 4 23 72 51 152 l52 145 943 0 944 0 30 30 c26 26 61 128 286 830 141 440 258 816 261 835 5 46 -26 96 -72 116 -29 12 -210 14 -1217 14 -780 0 -1196 -4 -1220 -10 -39 -11 -74 -48 -85 -88 -9 -39 14 -99 50 -124 l32 -23 1111 -5 1112 -5 -42 -130 -42 -130 -939 -5 c-1021 -5 -964 -2 -999 -61 -20 -34 -21 -81 -1 -119 32 -63 -13 -60 965 -60 l892 0 -7 -30 c-4 -17 -26 -88 -49 -158 l-43 -127 -779 -5 c-855 -5 -808 -2 -839 -66 -19 -40 -19 -68 0 -108 33 -69 -8 -66 804 -66 578 0 731 -3 731 -12 0 -7 -18 -68 -41 -136 l-41 -122 -805 2 -805 3 -335 965 c-229 663 -341 972 -356 987 -21 21 -576 246 -634 256 -15 3 -42 1 -60 -4z m1431 -3059 c59 -29 80 -63 84 -135 2 -47 -1 -67 -17 -93 -30 -46 -77 -72 -134 -72 -112 0 -189 97 -158 200 31 103 130 147 225 100z m1342 -1 c149 -71 97 -299 -68 -299 -86 0 -151 54 -164 135 -13 90 66 184 155 185 19 0 54 -9 77 -21z"
       id="path833"
       style="fill:#1a1d24;fill-opacity:1" />
  </g>
</svg>
