<svg version="1.1" xmlns="http://www.w3.org/2000/svg" xmlns:xlink="http://www.w3.org/1999/xlink" x="0px" y="0px" viewBox="0 0 32 32" xml:space="preserve" width="32" height="32"><title>settings gear 63</title><g class="nc-icon-wrapper" fill="#ffffff"><path fill="#1a1d24" d="M32,19v-6h-4.393c-0.283-1.098-0.715-2.134-1.278-3.086l3.106-3.106l-4.243-4.243l-3.106,3.106 C21.134,5.108,20.098,4.677,19,4.393V0h-6v4.393c-1.098,0.283-2.134,0.715-3.086,1.278L6.808,2.565L2.565,6.808l3.106,3.106 C5.108,10.866,4.677,11.902,4.393,13H0v6h4.393c0.283,1.098,0.715,2.134,1.278,3.086l-3.106,3.106l4.243,4.243l3.106-3.106 c0.953,0.563,1.988,0.995,3.086,1.278V32h6v-4.393c1.098-0.283,2.134-0.715,3.086-1.278l3.106,3.106l4.243-4.243l-3.106-3.106 c0.563-0.953,0.994-1.988,1.278-3.086H32z M16,21c-2.761,0-5-2.239-5-5s2.239-5,5-5s5,2.239,5,5S18.761,21,16,21z"/></g></svg>