<?xml version="1.0" standalone="no"?>
<!DOCTYPE svg PUBLIC "-//W3C//DTD SVG 20010904//EN"
 "http://www.w3.org/TR/2001/REC-SVG-20010904/DTD/svg10.dtd">
<svg version="1.0" xmlns="http://www.w3.org/2000/svg"
 width="512.000000pt" height="512.000000pt" viewBox="0 0 512.000000 512.000000"
 preserveAspectRatio="xMidYMid meet">

<g transform="translate(0.000000,512.000000) scale(0.100000,-0.100000)"
fill="#000000" stroke="none">
<path d="M1690 2400 l0 -2150 390 0 390 0 0 2150 0 2150 -390 0 -390 0 0
-2150z m320 -160 l0 -1600 -90 0 -90 0 0 1600 0 1600 90 0 90 0 0 -1600z m320
-960 l0 -640 -90 0 -90 0 0 640 0 640 90 0 90 0 0 -640z"/>
<path d="M250 3120 l0 -950 230 0 230 0 0 950 0 950 -230 0 -230 0 0 -950z"/>
<path d="M2875 3721 c-149 -28 -201 -41 -203 -52 -3 -15 606 -3420 613 -3427
9 -9 438 73 442 85 3 7 -133 779 -301 1716 -168 938 -306 1707 -306 1711 0 10
-36 5 -245 -33z"/>
<path d="M890 2240 l0 -1350 310 0 310 0 0 1350 0 1350 -310 0 -310 0 0 -1350z"/>
<path d="M3565 3243 c-71 -30 -131 -56 -133 -58 -3 -2 45 -116 52 -123 3 -3
265 104 273 111 5 5 -49 127 -56 127 -3 -1 -64 -26 -136 -57z"/>
<path d="M3692 2951 c-148 -62 -142 -54 -102 -143 l20 -46 128 55 c70 30 131
58 135 62 8 8 -27 109 -41 122 -4 3 -67 -19 -140 -50z"/>
<path d="M3808 2653 c-116 -51 -126 -57 -118 -77 31 -81 982 -2302 988 -2307
5 -5 250 92 271 107 3 2 -691 1637 -952 2242 -22 50 -45 92 -51 91 -6 0 -68
-26 -138 -56z"/>
<path d="M250 1840 l0 -150 230 0 230 0 0 150 0 150 -230 0 -230 0 0 -150z"/>
<path d="M250 880 l0 -630 230 0 230 0 0 630 0 630 -230 0 -230 0 0 -630z"/>
<path d="M890 480 l0 -230 310 0 310 0 0 230 0 230 -310 0 -310 0 0 -230z"/>
</g>
</svg>
